<svg width="12" height="16" viewBox="0 0 12 16" fill="none" xmlns="http://www.w3.org/2000/svg">
    <path fill-rule="evenodd" clip-rule="evenodd"
        d="M4 0H5H6H7H8V1H9V2V3V4H8V3H7V2H6V3H5V4H6V5H5H4V4H3V3V2V1H4V0ZM7 4V5H8V4H7ZM7 4H6V3H7V4ZM6 6H5V7V8V9V10H6H7V9V8V7V6H6ZM2 7H1V8H0V9V10V11V12V13H1V14H0V15H1V16H2H3H4H5H6H7H8H9H10H11V15H12V14H11V13H12V12V11V10V9V8H11V7H10H9H8V8V9H9V10V11H8V12H7H6H5H4V11H3V10V9H4V8V7H3H2ZM10 15H11V14H10H9H8H7H6H5H4H3H2H1V15H2H3H4H5H6H7H8H9H10ZM3 11V12V13H2H1V12V11H2H3Z"
        fill="currentColor" />
</svg>