<svg width="16" height="16" viewBox="0 0 16 16" fill="none" xmlns="http://www.w3.org/2000/svg">
<path fill-rule="evenodd" clip-rule="evenodd" d="M5 0H6V1H5V0ZM10 0H11V1H10V0ZM3 2H2V3H3V2ZM14 2H15V3H14V2ZM7 3H6V4H5V5H4V6H3V7V8V9V10H4V11H5V12H6V13H7H8H9H10V12H11V11H12V10H13V9V8V7V6H12V5H11V4H10V3H9H8H7ZM11 7H12V6H11V7ZM11 8V7H10V6H9V7H8V6H7V7H6V6H5V7H4V8H5V9H4V10H5V11H6V12H7H8H9H10V11H11V10H12V9V8H11ZM10 8V7H9V8H8V7H7V8H6V7H5V8H6V9H7V8H8V9H9V8H10ZM10 8H11V9H10V8ZM1 5H0V6H1V5ZM15 5H16V6H15V5ZM1 10H0V11H1V10ZM15 10H16V11H15V10ZM3 13H2V14H3V13ZM13 13H14V14H13V13ZM6 15H5V16H6V15ZM10 15H11V16H10V15Z" fill="currentColor"/>
</svg>
