<svg width="16" height="16" viewBox="0 0 16 16" fill="none" xmlns="http://www.w3.org/2000/svg">
<path fill-rule="evenodd" clip-rule="evenodd" d="M0 0H1H2H3H4H5H6H7H8H9H10H11H12H13H14H15H16V1V2V3V4V5V6V7V8V9V10V11V12V13V14V15V16H15H14H13H12H11H10H9H8H7H6H5H4H3H2H1H0V15V14V13V12V11V10V9V8V7V6V5V4V3V2V1V0ZM15 15H14H13H12H11H10H9H8H7H6H5H4H3H2H1V14V13V12V11V10V9V8V7V6V5V4V3V2V1H2H3H4H5H6H7H8H9H10H11H12H13H14H15V2V3V4V5V6V7V8V9V10V11V12V13V14V15ZM2 2H3V3H2V2ZM4 3H3V4H2V5H3V6H2V7H3V8H4V9V10H3H2V11V12H3H4V13V14H5H6V13V12H7H8V13V14H9H10V13V12H11H12V13V14H13H14V13V12H13H12V11V10H13H14V9V8V7H13V6H14V5H13V4H14V3H13V2H12V3H11V2H10V3H9V2H8V3H7V2H6V3H5V2H4V3ZM4 4V3H5V4H4ZM4 5V4H3V5H4ZM5 5V4H6V5H5ZM5 6V5H4V6H3V7H4V8H5V7H6V8V9V10H5H4V11V12H5H6V11V10H7H8V11V12H9H10V11V10H11H12V9V8H13V7H12V6H13V5H12V4H13V3H12V4H11V3H10V4H9V3H8V4H7V3H6V4H7V5H6V6H5ZM7 6V5H8V6H7ZM7 7V6H6V7H7ZM8 7H7V8H8V9V10H9H10V9V8V7H11V8H12V7H11V6H12V5H11V4H10V5H9V4H8V5H9V6H8V7ZM9 7V8H8V7H9ZM10 6V7H9V6H10ZM10 6V5H11V6H10ZM5 6V7H4V6H5Z" fill="currentColor"/>
</svg>
