<svg width="14" height="12" viewBox="0 0 14 12" fill="none" xmlns="http://www.w3.org/2000/svg">
<path fill-rule="evenodd" clip-rule="evenodd" d="M3 0H2V1H1V2V3V4V5V6V7V8V9V10H0V11V12H1H2H3H4H5H6H7H8H9H10H11H12H13H14V11V10H13V9V8V7V6V5V4V3V2V1H12V0H11H10H9H8H7H6H5H4H3ZM2 10H1V11H2V10ZM3 10V9H2V10H3ZM4 10H3V11H4V10ZM5 10V9H4V10H5ZM6 10H5V11H6V10ZM7 10V9H6V10H7ZM8 10H7V11H8V10ZM9 10V9H8V10H9ZM10 10H9V11H10V10ZM11 10V9H10V10H11ZM11 10V11H12V10H11ZM12 1V2V3V4V5V6V7V8H11H10H9H8H7H6H5H4H3H2V7V6V5V4V3V2V1H3H4H5H6H7H8H9H10H11H12ZM5 2H4V3V4H5V3V2ZM9 2H10V3V4H9V3V2ZM5 5H4V6H5V7H6H7H8H9V6H10V5H9V6H8H7H6H5V5Z" fill="currentColor"/>
</svg>
